<svg xmlns="http://www.w3.org/2000/svg" width="230.336" height="50" viewBox="0 0 230.336 50"><g transform="translate(-321 -428)"><path d="M33.07,48.5c-3.608,1.51-7.573,5.776-8.826,11.131-1.586,6.785,5.015,9.654,5.556,8.713.637-1.105-1.183-1.479-1.558-5-.484-4.547,1.63-9.627,4.29-11.856.494-.414.471.162.471,1.229,0,1.907-.105,19.023-.105,22.6,0,4.834-.2,6.36-.558,7.868-.363,1.528-.947,2.561-.5,2.959.494.445,2.606-.613,3.828-2.319a12.719,12.719,0,0,0,2.071-7.171c.111-3.216.107-8.32.111-11.232,0-2.67.045-10.488-.047-15.189-.022-1.153-3.22-2.362-4.729-1.73m128.1,22.623a14.768,14.768,0,0,1-1.363,5.862c-1.336,2.682-4.11,3.515-5.287-.341a21.786,21.786,0,0,1-.21-8.545c.47-2.988,1.781-5.244,3.952-5.041,2.142.2,3.144,2.961,2.908,8.064Zm-36.1,15.591c-.029,4.175-.686,7.836-2.1,8.9-2,1.508-4.685.377-4.129-2.67.492-2.7,2.82-5.45,6.23-8.814,0,0,.007.767-.006,2.584Zm-.546-15.615a16.524,16.524,0,0,1-1.363,5.887c-1.336,2.682-4.13,3.521-5.287-.341a19.362,19.362,0,0,1-.21-8.2c.508-2.791,1.74-5.381,3.952-5.381,2.151,0,3.211,2.36,2.908,8.039Zm-20.916-.035a14.932,14.932,0,0,1-1.363,5.922c-1.373,2.664-4.089,3.508-5.287-.341a20.636,20.636,0,0,1-.21-8.6c.533-3.034,1.868-5.185,3.952-4.981,2.141.209,3.181,2.96,2.908,8Zm95.851,2.831c-.523,0-.762.539-.96,1.447-.685,3.157-1.406,3.87-2.335,3.87-1.038,0-1.97-1.563-2.21-4.693a104.48,104.48,0,0,1,.083-11.5c.049-.926-.206-1.842-2.69-2.744-1.069-.388-2.622-.959-3.4.908a46.469,46.469,0,0,0-3.241,11.163c-.01.088-.118.106-.137-.1a86.7,86.7,0,0,1-.45-9.04,2.708,2.708,0,0,0-1.342-2.586c-.727-.459-2.934-1.271-3.729-.3-.689.79-1.486,2.915-2.315,5.434-.673,2.048-1.142,3.433-1.142,3.433s.009-5.525.017-7.621a1.074,1.074,0,0,0-.7-1.1,14.716,14.716,0,0,0-2.8-.57c-.759,0-.945.425-.945,1.043,0,.081-.12,7.274-.12,12.3,0,.218,0,.457,0,.71-.42,2.312-1.782,5.45-3.264,5.45S165.6,78.08,165.6,72.084c0-3.5.105-5.019.157-7.549.03-1.457.088-2.576.085-2.83-.011-.779-1.358-1.171-1.984-1.316a5.865,5.865,0,0,0-1.6-.179,1,1,0,0,0-1.032.976c0,.293,0,.849,0,.849a5.79,5.79,0,0,0-2.865-2.322,5.511,5.511,0,0,0-6.353,2.4,14.576,14.576,0,0,0-2.584,7.385,21.918,21.918,0,0,0,.269,6.71c-.523,2.261-1.494,3.188-2.557,3.188-1.544,0-2.663-2.519-2.533-6.877a39.508,39.508,0,0,1,1.286-7.787,2.522,2.522,0,0,0-.495-2.512c-.5-.571-1.564-.862-3.094-.5-1.09.256-2.648.531-4.074.742a8.251,8.251,0,0,0,.157-.948c.371-3.174-3.078-2.916-4.178-1.9a3.9,3.9,0,0,0-1.274,2.6,3.068,3.068,0,0,0,1.392,3,30.988,30.988,0,0,1-3.26,8.11,35,35,0,0,1-2.033,3.192q0-.555-.006-1.109c-.017-5.245.053-9.373.084-10.861.03-1.457.088-2.547.085-2.8-.008-.57-.341-.785-1.033-1.057a7.329,7.329,0,0,0-2.085-.466c-.947-.074-1.517.428-1.5,1.022,0,.112,0,.8,0,.8a5.79,5.79,0,0,0-2.865-2.322,5.511,5.511,0,0,0-6.354,2.4,15.807,15.807,0,0,0-2.584,7.361,22.568,22.568,0,0,0,.133,6.314c-.357,1.764-1.383,3.609-2.543,3.609-1.483,0-2.327-1.312-2.327-7.308,0-3.5.105-5.019.157-7.549.03-1.457.088-2.577.085-2.83-.011-.779-1.358-1.171-1.984-1.317a5.767,5.767,0,0,0-1.656-.175,1.066,1.066,0,0,0-.977.939v.883a5.79,5.79,0,0,0-2.865-2.322,5.53,5.53,0,0,0-6.353,2.4c-1.161,1.606-2.1,3.386-2.584,7.326a24.683,24.683,0,0,0-.193,3.2c-.463,2.83-2.507,6.092-4.179,6.092-.978,0-1.91-1.9-1.91-5.942,0-5.388.333-13.058.39-13.8,0,0,2.113-.036,2.522-.041,1.054-.012,2.008.013,3.412-.058.7-.036,1.382-2.562.656-2.875a25.137,25.137,0,0,0-3.579-.285c-.776-.018-2.936-.177-2.936-.177s.194-5.091.239-5.629c.038-.448-.542-.679-.874-.819a11.982,11.982,0,0,0-2.39-.683c-1.185-.244-1.722-.005-1.827.995-.158,1.518-.24,5.963-.24,5.963-.87,0-3.84-.17-4.71-.17-.808,0-1.68,3.475-.563,3.518,1.285.05,3.526.093,5.011.138,0,0-.066,7.8-.066,10.2,0,.256,0,.5,0,.742a11.771,11.771,0,0,1-3.7,6.561c.618-2.818-.645-4.935-2.92-6.726-.838-.66-2.493-1.91-4.344-3.28a11.178,11.178,0,0,0,2.023-3.183c.674-1.506.7-3.229-.951-3.609A4.943,4.943,0,0,0,65.071,63.1a4.083,4.083,0,0,0,.777,4.17c.074.093.155.189.239.285-.617,1.189-1.464,2.789-2.182,4.031-1.992,3.446-3.5,6.172-4.634,6.172-.909,0-.9-2.767-.9-5.358,0-2.234.165-5.592.3-9.069a2.531,2.531,0,0,0-1.5-2.4,6.718,6.718,0,0,0-2.559-1.069c-1.083,0-4.209.147-7.163,8.691-.372,1.077-1.1,3.039-1.1,3.039l.063-10.274a.716.716,0,0,0-.422-.633,7.291,7.291,0,0,0-3.009-.823q-.845,0-.844.784l-.1,16.074a23.629,23.629,0,0,0,.153,3.269,3.427,3.427,0,0,0,.557,1.434,1.6,1.6,0,0,0,.98.626c.428.088,2.771.389,2.893-.506A32.921,32.921,0,0,1,48,74.978c1.915-6.739,4.412-10.027,5.586-11.195.205-.2.44-.216.428.118-.05,1.477-.226,5.169-.345,8.306-.318,8.393,1.209,9.949,3.391,9.949,1.669,0,4.023-1.659,6.545-5.857,1.573-2.617,3.1-5.182,4.2-7.031.765.708,1.622,1.469,2.48,2.283,1.992,1.891,2.647,3.688,2.213,5.393-.332,1.3-1.582,2.646-3.807,1.341-.649-.381-.925-.675-1.577-1.1a1.12,1.12,0,0,0-1.206-.058,4.292,4.292,0,0,0-1.582,2.416c-.265.962.7,1.471,1.7,1.916a13.179,13.179,0,0,0,3.889.77c4.595.154,8.276-2.219,10.838-8.338.459,5.285,2.411,8.275,5.8,8.275,2.267,0,4.541-2.931,5.535-5.814a10.222,10.222,0,0,0,1.253,3.062c2.613,4.141,7.683,3.249,10.23-.267a6.551,6.551,0,0,0,.907-1.477,4.792,4.792,0,0,0,4.576,4.48c1.714,0,3.485-.811,4.725-3.6a8.539,8.539,0,0,0,.477.867c2.613,4.141,7.683,3.249,10.23-.267.12-.165.224-.315.315-.449l.075,2.181-2.345,2.15c-3.925,3.6-6.909,6.333-7.129,9.515-.282,4.057,3.008,5.564,5.5,5.762a7.018,7.018,0,0,0,6.3-3.294c1.224-1.8,2.025-5.67,1.966-9.493-.023-1.531-.062-3.478-.092-5.565a44.585,44.585,0,0,0,4.365-6,45.385,45.385,0,0,0,4.087-8.751s1.452.012,3-.089c.5-.032.638.069.546.432-.111.439-1.958,7.564-.272,12.311a5.949,5.949,0,0,0,5.3,4.295,5.256,5.256,0,0,0,4.458-3.388,7.137,7.137,0,0,0,.355.646c2.613,4.141,7.665,3.244,10.23-.267a10.481,10.481,0,0,0,.907-1.477,4.975,4.975,0,0,0,4.753,4.5c1.594,0,3.107-.654,4.335-3.558a13.148,13.148,0,0,0,.26,2.654c.078.2.531.455.86.577a6.588,6.588,0,0,0,3.5.174c.381-.077.679-.383.719-1.173a46.587,46.587,0,0,1,.67-8.147,23.967,23.967,0,0,1,2.507-6.866c.261-.468.556-.545.567-.05.022,1,.072,3.942.481,7.892a17.967,17.967,0,0,0,1.01,5.166,2.843,2.843,0,0,0,2.851,1.628c.563,0,1.74-.156,1.634-1.145a31.561,31.561,0,0,1,1.079-7.743,37.71,37.71,0,0,1,2.221-6.245c.151-.341.221-.072.218-.02-.086,1.925-.279,8.223.505,11.667,1.063,4.666,4.139,5.188,5.211,5.188,2.288,0,4.16-1.741,4.79-6.321.152-1.1-.073-1.953-.747-1.953" transform="translate(351.08 379.68)" fill="#262626"/><g transform="translate(321 428)"><path d="M23.663,7.608c5.229,0,5.849.02,7.914.114a10.837,10.837,0,0,1,3.636.674,6.486,6.486,0,0,1,3.717,3.717,10.835,10.835,0,0,1,.674,3.636c.094,2.065.114,2.684.114,7.914s-.02,5.849-.114,7.914a10.839,10.839,0,0,1-.674,3.636,6.486,6.486,0,0,1-3.717,3.717,10.835,10.835,0,0,1-3.636.674c-2.065.094-2.684.114-7.914.114s-5.849-.02-7.914-.114a10.839,10.839,0,0,1-3.636-.674A6.486,6.486,0,0,1,8.4,35.214a10.835,10.835,0,0,1-.674-3.636c-.094-2.065-.114-2.684-.114-7.914s.02-5.849.114-7.914A10.837,10.837,0,0,1,8.4,12.113,6.486,6.486,0,0,1,12.113,8.4a10.835,10.835,0,0,1,3.636-.674c2.065-.094,2.684-.114,7.914-.114m0-3.529c-5.319,0-5.986.023-8.074.118a14.374,14.374,0,0,0-4.754.91,10.018,10.018,0,0,0-5.728,5.728,14.377,14.377,0,0,0-.91,4.754c-.1,2.089-.118,2.756-.118,8.074s.023,5.986.118,8.074a14.374,14.374,0,0,0,.91,4.754,10.014,10.014,0,0,0,5.728,5.728,14.375,14.375,0,0,0,4.754.91c2.089.1,2.756.118,8.074.118s5.986-.023,8.074-.118a14.374,14.374,0,0,0,4.754-.91,10.014,10.014,0,0,0,5.728-5.728,14.375,14.375,0,0,0,.91-4.754c.1-2.089.118-2.756.118-8.074s-.023-5.986-.118-8.074a14.374,14.374,0,0,0-.91-4.754,10.016,10.016,0,0,0-5.728-5.728,14.377,14.377,0,0,0-4.754-.91c-2.089-.1-2.756-.118-8.074-.118h0Z" transform="translate(-4.079 -4.079)"/><path d="M136.692,126.635a10.057,10.057,0,1,0,10.057,10.057A10.057,10.057,0,0,0,136.692,126.635Zm0,16.585a6.528,6.528,0,1,1,6.528-6.528,6.528,6.528,0,0,1-6.528,6.528Z" transform="translate(-117.108 -117.108)"/><circle cx="2.35" cy="2.35" r="2.35" transform="translate(27.688 6.78)"/></g></g></svg>